PathFileType	4	(X/Y/Z)	 s09c0402.trc
DataRate	CameraRate	NumFrames	NumMarkers	Units	OrigDataRate	OrigDataStartFrame	OrigNumFrames
200	200	6	50	mm	200	1751	2000
Frame#	Time	racr			lacr			c7			jug			rlel			rdr			llel			ldr			s2			lic			ric			lasi			rasi			rpsi			lpsi			rgt			lgt			rth1			rth2			rth3			rth4			rlfc			rmfc			rsh1			rsh2			rsh3			rsh4			rlmal			rmmal			rcal			rtoe			rmt5			lth1			lth2			lth4			lth3			llfc			lmfc			llmal			lmmal			lcal			lmt5			lsh1			lsh2			lsh3			lsh4			ltoe			SBIKE			LBIKE			RBIKE			
		X1	Y1	Z1	X2	Y2	Z2	X3	Y3	Z3	X4	Y4	Z4	X5	Y5	Z5	X6	Y6	Z6	X7	Y7	Z7	X8	Y8	Z8	X9	Y9	Z9	X10	Y10	Z10	X11	Y11	Z11	X12	Y12	Z12	X13	Y13	Z13	X14	Y14	Z14	X15	Y15	Z15	X16	Y16	Z16	X17	Y17	Z17	X18	Y18	Z18	X19	Y19	Z19	X20	Y20	Z20	X21	Y21	Z21	X22	Y22	Z22	X23	Y23	Z23	X24	Y24	Z24	X25	Y25	Z25	X26	Y26	Z26	X27	Y27	Z27	X28	Y28	Z28	X29	Y29	Z29	X30	Y30	Z30	X31	Y31	Z31	X32	Y32	Z32	X33	Y33	Z33	X34	Y34	Z34	X35	Y35	Z35	X36	Y36	Z36	X37	Y37	Z37	X38	Y38	Z38	X39	Y39	Z39	X40	Y40	Z40	X41	Y41	Z41	X42	Y42	Z42	X43	Y43	Z43	X44	Y44	Z44	X45	Y45	Z45	X46	Y46	Z46	X47	Y47	Z47	X48	Y48	Z48	X49	Y49	Z49	X50	Y50	Z50	
1751	8.7550	726.095599	1243.653847	-78.206655	707.805773	1217.091886	-455.179365	720.887581	1311.474049	-268.521089	713.162736	1176.045323	-263.627732	559.602377	1084.719670	47.573699	688.095496	907.990693	-36.449353	502.764233	1054.157623	-558.333972	675.875299	907.490438	-466.065587	241.102061	1179.467232	-203.239722	363.636844	1146.589996	-360.420486	392.268913	1131.486760	-67.827942	386.706228	1079.209721	-340.360352	413.572808	1069.511099	-92.948288	285.508896	1196.550017	-144.863232	274.723044	1212.340603	-253.785799	318.861482	992.049996	-29.935084	314.237705	1041.713089	-404.118397	361.831153	857.793843	-42.984530	405.956379	783.522244	-58.128737	400.178056	696.111061	-74.107624	434.774310	792.559105	-79.755765	414.854748	607.577001	-107.171663	383.838200	589.452545	-197.757609	366.120199	517.221867	-68.172720	365.285519	428.455202	-82.702722	321.064887	352.974045	-79.390254	387.538386	425.540493	-116.245848	285.907910	254.293928	-77.708458	287.050940	266.277716	-152.394489	205.211384	243.536096	-113.155099	451.351576	149.033907	-132.146320	371.642320	158.979749	-62.540099	408.803307	940.803932	-403.805344	485.510182	902.903238	-397.237971	508.567546	927.795774	-380.669074	535.402092	828.660744	-400.817465	575.012389	742.325742	-385.341808	575.611750	719.323011	-285.876135	238.569434	599.214586	-407.751392	255.480467	594.803648	-334.312595	159.403049	626.309105	-370.273188	246.607556	476.219966	-429.614994	487.922919	703.812654	-409.341723	417.882915	652.489926	-403.299654	329.630793	642.096928	-406.383108	428.700182	628.290758	-374.087544	320.825267	422.741914	-359.030903	-64.673388	853.095926	-238.427073	20.675636	84.852026	-441.908545	21.129836	84.000491	-43.759694	
1752	8.7600	725.104400	1245.035013	-81.232807	709.094581	1214.020161	-457.446895	721.331629	1310.476245	-272.238619	712.801993	1175.133110	-265.953406	560.662858	1085.841004	46.627179	688.281233	907.972640	-35.956116	501.950923	1052.931119	-559.061805	675.181133	908.102610	-467.356918	241.529591	1178.741484	-199.216304	361.072913	1147.505302	-359.721813	395.620607	1129.169271	-68.355057	384.278004	1080.499411	-343.266031	416.107372	1067.277549	-95.137924	286.580077	1195.770579	-141.221232	273.765804	1212.054048	-250.118328	322.539765	989.938922	-28.996295	310.575782	1042.274376	-401.502886	361.414629	856.133377	-42.805839	403.281799	780.353491	-58.422168	395.241572	693.568012	-74.176789	432.012260	789.156145	-80.493652	407.437130	605.002029	-107.383817	374.531869	587.172646	-197.906951	359.052298	514.941719	-68.238726	358.107123	426.158354	-82.583745	314.017439	350.515919	-78.918224	379.966146	423.265123	-116.481083	278.633709	252.518018	-76.844902	279.411114	263.808336	-151.748638	197.576189	243.101586	-112.518225	441.937005	143.532737	-132.022693	362.563790	154.755183	-62.464925	408.048658	943.751237	-402.545841	485.786448	907.848295	-396.898414	508.420816	933.388851	-380.783476	537.327832	834.819512	-401.771803	579.724860	749.007620	-386.017110	580.774596	726.242416	-286.174467	244.568624	602.793457	-407.336162	261.265876	598.999223	-334.046697	163.929782	628.137054	-370.333444	255.918407	480.685486	-429.767806	492.963623	710.156803	-409.376160	423.360643	658.293238	-403.302750	335.135703	647.242441	-406.133637	434.330553	633.957904	-374.053727	331.915068	429.591349	-359.263862	-64.700424	853.101490	-238.462891	20.681235	84.824366	-441.905607	21.126840	84.013771	-43.754022	
1753	8.7650	724.096358	1246.355480	-84.258944	710.355323	1211.210777	-459.797373	721.520062	1309.292500	-276.237178	712.524451	1174.028395	-268.578437	561.653713	1086.938254	45.746347	688.454016	907.966477	-35.426529	501.304635	1051.768901	-559.799282	674.946981	908.065513	-467.597205	241.794185	1178.395268	-195.020795	358.604065	1148.509698	-359.073497	398.906905	1127.021546	-68.981417	381.359512	1081.699755	-346.415475	418.278282	1065.122538	-97.299239	288.144973	1194.860852	-138.149742	273.140805	1211.844381	-246.538656	326.318280	988.074926	-28.114425	306.618473	1042.892596	-399.824022	361.111629	854.723820	-42.706998	400.867697	778.029150	-59.521315	390.530541	691.230653	-74.496309	428.980138	786.044169	-82.120184	400.527648	602.795550	-107.311471	364.252793	585.433891	-199.247506	352.274545	513.110434	-68.145531	351.117183	424.290997	-82.363845	306.960579	348.736539	-78.302296	372.518964	421.553404	-116.430109	270.942316	250.712757	-76.861472	271.624841	262.040800	-150.944665	189.844821	243.083346	-111.594079	431.254619	137.573218	-133.322378	353.279398	151.262498	-62.395875	407.321808	946.894020	-401.207077	486.000679	912.751417	-396.666967	508.219968	938.945354	-381.006605	539.612395	840.947354	-400.303212	584.233450	756.376217	-386.656435	585.732483	733.289527	-286.845481	250.419587	605.738649	-406.894975	267.092305	602.482850	-333.610553	168.455320	628.897995	-370.066808	265.243435	484.643724	-429.948824	497.683151	716.331863	-409.602727	428.620768	663.712724	-403.405049	340.583859	651.674805	-405.907549	439.869398	639.580250	-374.443563	342.976645	435.862605	-359.511562	-64.729455	853.072592	-238.459656	20.675178	84.821067	-441.899423	21.107307	83.996591	-43.758351	
1754	8.7700	723.025890	1247.462556	-87.186281	711.712075	1208.135460	-461.938994	721.754102	1307.937925	-280.190945	712.254222	1172.763773	-271.243548	562.467805	1087.974058	44.987676	688.645126	907.936171	-34.888912	500.564612	1050.773552	-560.568087	675.109221	907.421388	-466.825367	242.239854	1178.097805	-191.081259	356.147038	1149.616251	-358.392802	402.316074	1125.250316	-69.221740	379.810246	1082.261665	-346.163118	420.290238	1063.505298	-98.993212	291.309827	1193.172535	-136.960450	272.584684	1211.774499	-243.254941	330.303211	986.422849	-27.454094	302.693440	1043.503890	-398.324497	360.905937	853.858189	-42.578664	398.746526	776.092791	-59.702748	386.255181	689.618053	-73.894919	426.599423	783.599000	-82.835023	393.877287	601.096833	-107.316815	356.237628	583.849970	-199.158309	345.818743	511.848832	-67.978471	344.202664	422.931989	-82.107512	299.888132	347.555884	-77.505084	364.846973	420.020170	-116.277067	263.684520	250.437582	-75.322403	263.852176	260.899636	-150.038287	182.261268	243.648861	-110.384993	421.070067	132.968858	-133.800632	343.789484	148.229717	-62.407716	406.783939	949.877999	-400.598767	486.101435	917.672135	-396.638353	507.948308	944.435938	-381.336940	541.412321	846.838534	-400.149362	588.391588	763.423743	-387.514629	590.161835	740.753435	-287.191762	256.139598	607.706849	-406.508743	272.519448	605.315008	-333.322063	172.932911	628.613304	-369.905675	274.843698	487.963536	-430.122473	501.968388	722.354059	-409.920922	433.700760	668.726694	-403.646106	345.855577	655.521425	-405.826657	445.367554	644.579578	-374.859766	354.243020	441.952123	-359.800094	-64.770404	852.995632	-238.452994	20.650474	84.819338	-441.916507	21.102317	83.988158	-43.759730	
1755	8.7750	721.992651	1248.412438	-89.943917	713.116939	1205.116878	-463.956405	722.336431	1306.611044	-283.863298	711.844085	1171.565347	-273.774064	563.149764	1088.901355	44.280426	688.865833	907.931117	-34.347760	500.162062	1049.805839	-561.374135	674.928434	907.451852	-467.198971	242.888891	1177.839380	-187.575047	353.753356	1150.805408	-357.748371	405.312678	1123.695837	-70.250196	378.105621	1082.914269	-346.325487	422.070354	1062.141836	-100.778901	293.018594	1192.654612	-134.463966	271.329909	1211.625680	-240.761969	334.300082	985.067724	-26.814178	298.415489	1044.359432	-397.962620	360.811611	853.273320	-42.564712	396.936890	774.698994	-59.869023	382.320927	688.163436	-73.040953	424.098489	781.362750	-84.075600	387.727450	599.828135	-107.094098	348.924422	582.740277	-199.001579	340.130592	511.323622	-67.267183	337.536389	422.324768	-81.549336	292.725296	347.102763	-76.690583	357.955033	419.121964	-115.794383	256.612812	250.132024	-73.393319	256.294389	260.444760	-149.209211	172.264294	246.902414	-107.774526	410.540142	129.101095	-134.409874	334.123766	145.941356	-62.427854	406.174259	953.179809	-400.432536	486.189616	922.511027	-396.764526	507.470430	949.742460	-381.758419	542.856425	852.727131	-400.410857	592.185797	770.365239	-388.388282	594.564147	747.789773	-287.733307	261.745773	608.962544	-406.147159	278.125673	607.290805	-332.966132	177.375216	627.379870	-369.714689	284.379667	490.708745	-430.411157	505.888769	727.934089	-410.371180	438.487470	673.199826	-404.114009	350.815259	658.660740	-405.827921	450.715712	649.199555	-375.425775	365.390058	447.593111	-360.014633	-64.794182	852.965631	-238.466128	20.646586	84.805013	-441.902453	21.102894	83.991921	-43.752876	
1756	8.7800	720.984933	1249.194959	-92.636954	714.601199	1201.912781	-465.642915	723.124074	1305.062982	-287.231081	711.387693	1170.189399	-275.920439	563.704005	1089.748328	43.634861	689.193272	907.907650	-33.573306	499.730090	1048.999525	-562.262715	674.813033	907.503302	-467.621371	243.595576	1177.775154	-184.399686	351.492681	1152.103174	-357.193905	408.363094	1121.674949	-72.273947	376.225072	1083.778699	-346.681840	423.241252	1060.993233	-103.861244	294.710575	1192.309360	-132.236781	270.699298	1212.033251	-237.967697	338.331813	984.140254	-26.435388	294.507460	1045.123385	-396.796457	361.023146	853.077101	-42.481467	395.498814	774.057912	-60.034513	379.161530	687.390142	-71.825031	422.131682	779.801010	-84.986701	382.437835	598.873769	-106.539779	342.869874	581.996004	-198.827516	334.370147	511.090356	-66.801489	331.009749	422.184427	-80.886574	285.624477	347.229063	-75.864943	351.358279	418.614674	-115.193527	248.663912	250.639914	-72.721419	248.614877	260.613436	-148.375934	164.617692	248.425781	-106.454247	399.932460	126.007172	-134.756921	324.349813	144.462882	-62.307116	405.522529	956.634064	-400.549674	486.015860	927.343849	-397.265498	506.989509	954.927855	-382.410208	543.755149	858.173482	-401.391866	595.428808	777.177065	-389.559564	599.043381	754.311474	-288.459608	267.245063	609.440264	-405.920758	283.324306	608.467031	-332.862652	181.875451	625.092971	-369.379793	293.846380	492.542729	-430.654935	509.361028	733.184920	-411.069994	442.906217	677.078327	-404.699594	355.495380	661.232225	-406.031710	455.671817	653.183787	-376.167273	376.558410	452.564164	-360.578498	-64.829840	852.956298	-238.487989	20.636794	84.792747	-441.914461	21.093186	83.994817	-43.767504	
